# xmcd
#
# Track frame offsets:
#	150
#	30462
#	47566
#	66334
#	94513
#	108926
#	124019
#	142768
#	168510
#	183134
#	193994
#
# Disc length: 2969 seconds
#
# Revision: 0
# Processed by: cddbd v1.5.1PL0 Copyright (c) Steve Scherf et al.
# Submitted via: EasyCDDAExtractor 8.0.2.1
#
DISCID=8c0b970b
DTITLE=Alice Cooper - Tower City Amphitheatre Cleveland 06-10-01 Disc 1
DYEAR=2001
DGENRE=Hard Rock
TTITLE0=Sex Death and Money - Brutal Planet
TTITLE1=Sanctuary
TTITLE2=I'm Eighteen 
TTITLE3=Welcome To My Nightmare - Go To Hell
TTITLE4=Billion Dollar Babies 
TTITLE5=Is It My Body 
TTITLE6=Fantasy Man 
TTITLE7=Nurse Rozetta - Dead Babies 
TTITLE8=Ballad Of Dwight Fry 
TTITLE9=The Execution
TTITLE10=Devil's Food - Black Widow - Drum Solo
EXTD=
EXTT0=
EXTT1=
EXTT2=
EXTT3=
EXTT4=
EXTT5=
EXTT6=
EXTT7=
EXTT8=
EXTT9=
EXTT10=
PLAYORDER=
